<?xml version="1.0"?>
<svg xmlns="http://www.w3.org/2000/svg" height="512px" viewBox="0 0 512 512" width="512px" class=""><g><g id="Filled_outline" data-name="Filled outline"><path d="m464 319.83v128.17h-352v-128.16a47.966 47.966 0 0 1 39.13-47.17c31.2-5.85 71.73-13.45 84.69-15.89l4.18-.78v-72h96v72l4.18.78 84.67 15.88a47.992 47.992 0 0 1 39.15 47.17z" fill="#fec9a3" data-original="#FEC9A3" class="" data-old_color="#fec9a3" style="fill:#FFFFFF"/><path d="m340.18 256.78a31.976 31.976 0 0 1 -27.24 15.22h-49.88a31.976 31.976 0 0 1 -27.24-15.22l4.18-.78v-72h96v72z" fill="#fec093" data-original="#FEC093" class="" data-old_color="#fec093" style="fill:#FFFFFF"/><path d="m464 319.837v128.163h-352v-128.163a47.939 47.939 0 0 1 39.13-47.17c7.89-1.479 16.38-3.069 24.87-4.669 11.11-2.081 22.23-4.161 32-6 18.37-3.44 32-6 32-6l32 32 12.8 32 3.2 8 3.2-8 12.8-31.998 32-32 64 12 24.85 4.659a48.333 48.333 0 0 1 7.15 1.921 48.014 48.014 0 0 1 32 45.259z" fill="#f35244" data-original="#F35244" class="" data-old_color="#f35244" style="fill:#FFFFFF"/><path d="m240 287.998h32v32h-32z" fill="#d93e30" data-original="#D93E30" class="" data-old_color="#d93e30" style="fill:#000000"/><path d="m144 288v32h-32v-.161a47.864 47.864 0 0 1 12.08-31.839z" fill="#d93e30" data-original="#D93E30" class="" data-old_color="#d93e30" style="fill:#000000"/><path d="m176 287.998h32v32h-32z" fill="#d93e30" data-original="#D93E30" class="" data-old_color="#d93e30" style="fill:#000000"/><path d="m368 287.998h32v32h-32z" fill="#d93e30" data-original="#D93E30" class="" data-old_color="#d93e30" style="fill:#000000"/><path d="m304 287.998h32v32h-32z" fill="#d93e30" data-original="#D93E30" class="" data-old_color="#d93e30" style="fill:#000000"/><path d="m464 319.837v.163h-32v-32h19.92a47.9 47.9 0 0 1 12.08 31.837z" fill="#d93e30" data-original="#D93E30" class="" data-old_color="#d93e30" style="fill:#000000"/><path d="m272 287.998h-32v-32z" fill="#ea4a3b" data-original="#EA4A3B" class="" data-old_color="#ea4a3b" style="fill:#FFFFFF"/><path d="m144 274.578v13.422h-19.92a47.787 47.787 0 0 1 19.92-13.422z" fill="#ea4a3b" data-original="#EA4A3B" class="" data-old_color="#ea4a3b" style="fill:#FFFFFF"/><path d="m336 255.998v32h-32z" fill="#ea4a3b" data-original="#EA4A3B" class="" data-old_color="#ea4a3b" style="fill:#FFFFFF"/><path d="m451.92 288h-19.92v-13.42a47.787 47.787 0 0 1 19.92 13.42z" fill="#ea4a3b" data-original="#EA4A3B" class="" data-old_color="#ea4a3b" style="fill:#FFFFFF"/><path d="m208 262v26h-32v-20c11.11-2.083 22.23-4.163 32-6z" fill="#ea4a3b" data-original="#EA4A3B" class="" data-old_color="#ea4a3b" style="fill:#FFFFFF"/><path d="m400 267.998v20h-32v-26z" fill="#ea4a3b" data-original="#EA4A3B" class="" data-old_color="#ea4a3b" style="fill:#FFFFFF"/><path d="m368 351.998h32v32h-32z" fill="#d93e30" data-original="#D93E30" class="" data-old_color="#d93e30" style="fill:#000000"/><path d="m176 351.998h32v32h-32z" fill="#d93e30" data-original="#D93E30" class="" data-old_color="#d93e30" style="fill:#000000"/><path d="m432 351.998h32v32h-32z" fill="#d93e30" data-original="#D93E30" class="" data-old_color="#d93e30" style="fill:#000000"/><path d="m240 351.998h32v32h-32z" fill="#d93e30" data-original="#D93E30" class="" data-old_color="#d93e30" style="fill:#000000"/><path d="m112 351.998h32v32h-32z" fill="#d93e30" data-original="#D93E30" class="" data-old_color="#d93e30" style="fill:#000000"/><path d="m304 351.998h32v32h-32z" fill="#d93e30" data-original="#D93E30" class="" data-old_color="#d93e30" style="fill:#000000"/><path d="m368 319.998h32v32h-32z" fill="#ea4a3b" data-original="#EA4A3B" class="" data-old_color="#ea4a3b" style="fill:#FFFFFF"/><path d="m304 319.998h32v32h-32z" fill="#ea4a3b" data-original="#EA4A3B" class="" data-old_color="#ea4a3b" style="fill:#FFFFFF"/><path d="m240 319.998h32v32h-32z" fill="#ea4a3b" data-original="#EA4A3B" class="" data-old_color="#ea4a3b" style="fill:#FFFFFF"/><path d="m176 319.998h32v32h-32z" fill="#ea4a3b" data-original="#EA4A3B" class="" data-old_color="#ea4a3b" style="fill:#FFFFFF"/><path d="m112 319.998h32v32h-32z" fill="#ea4a3b" data-original="#EA4A3B" class="" data-old_color="#ea4a3b" style="fill:#FFFFFF"/><path d="m432 319.998h32v32h-32z" fill="#ea4a3b" data-original="#EA4A3B" class="" data-old_color="#ea4a3b" style="fill:#FFFFFF"/><path d="m368 415.998h32v32h-32z" fill="#d93e30" data-original="#D93E30" class="" data-old_color="#d93e30" style="fill:#000000"/><path d="m240 415.998h32v32h-32z" fill="#d93e30" data-original="#D93E30" class="" data-old_color="#d93e30" style="fill:#000000"/><path d="m112 415.998h32v32h-32z" fill="#d93e30" data-original="#D93E30" class="" data-old_color="#d93e30" style="fill:#000000"/><path d="m176 415.998h32v32h-32z" fill="#d93e30" data-original="#D93E30" class="" data-old_color="#d93e30" style="fill:#000000"/><path d="m432 415.998h32v32h-32z" fill="#d93e30" data-original="#D93E30" class="" data-old_color="#d93e30" style="fill:#000000"/><path d="m304 415.998h32v32h-32z" fill="#d93e30" data-original="#D93E30" class="" data-old_color="#d93e30" style="fill:#000000"/><g fill="#ea4a3b"><path d="m304 383.998h32v32h-32z" data-original="#EA4A3B" class="" data-old_color="#EA4A3B" style="fill:#FFFFFF"/><path d="m368 383.998h32v32h-32z" data-original="#EA4A3B" class="" data-old_color="#EA4A3B" style="fill:#FFFFFF"/><path d="m112 383.998h32v32h-32z" data-original="#EA4A3B" class="" data-old_color="#EA4A3B" style="fill:#FFFFFF"/><path d="m240 383.998h32v32h-32z" data-original="#EA4A3B" class="" data-old_color="#EA4A3B" style="fill:#FFFFFF"/><path d="m176 383.998h32v32h-32z" data-original="#EA4A3B" class="" data-old_color="#EA4A3B" style="fill:#FFFFFF"/><path d="m432 383.998h32v32h-32z" data-original="#EA4A3B" class="" data-old_color="#EA4A3B" style="fill:#FFFFFF"/><path d="m208 287.998h32v32h-32z" data-original="#EA4A3B" class="" data-old_color="#EA4A3B" style="fill:#FFFFFF"/></g><path d="m240 256v32h-32v-26c18.37-3.442 32-6 32-6z" fill="#fc685b" data-original="#FC685B" class="" data-old_color="#fc685b" style="fill:#000000"/><path d="m208 351.998h32v32h-32z" fill="#ea4a3b" data-original="#EA4A3B" class="" data-old_color="#ea4a3b" style="fill:#FFFFFF"/><path d="m208 319.998h32v32h-32z" fill="#fc685b" data-original="#FC685B" class="" data-old_color="#fc685b" style="fill:#000000"/><path d="m208 415.998h32v32h-32z" fill="#ea4a3b" data-original="#EA4A3B" class="" data-old_color="#ea4a3b" style="fill:#FFFFFF"/><path d="m208 383.998h32v32h-32z" fill="#fc685b" data-original="#FC685B" class="" data-old_color="#fc685b" style="fill:#000000"/><path d="m272 287.998 12.8 32h-12.8z" fill="#ea4a3b" data-original="#EA4A3B" class="" data-old_color="#ea4a3b" style="fill:#FFFFFF"/><path d="m304 287.998v32h-12.8z" fill="#ea4a3b" data-original="#EA4A3B" class="" data-old_color="#ea4a3b" style="fill:#FFFFFF"/><path d="m272 351.998h32v32h-32z" fill="#ea4a3b" data-original="#EA4A3B" class="" data-old_color="#ea4a3b" style="fill:#FFFFFF"/><path d="m304 319.998v32h-32v-32h12.8l3.2 8 3.2-8z" fill="#fc685b" data-original="#FC685B" class="" data-old_color="#fc685b" style="fill:#000000"/><path d="m272 415.998h32v32h-32z" fill="#ea4a3b" data-original="#EA4A3B" class="" data-old_color="#ea4a3b" style="fill:#FFFFFF"/><path d="m272 383.998h32v32h-32z" fill="#fc685b" data-original="#FC685B" class="" data-old_color="#fc685b" style="fill:#000000"/><path d="m336 287.998h32v32h-32z" fill="#ea4a3b" data-original="#EA4A3B" class="" data-old_color="#ea4a3b" style="fill:#FFFFFF"/><path d="m368 261.998v26h-32v-32z" fill="#fc685b" data-original="#FC685B" class="" data-old_color="#fc685b" style="fill:#000000"/><path d="m336 351.998h32v32h-32z" fill="#ea4a3b" data-original="#EA4A3B" class="" data-old_color="#ea4a3b" style="fill:#FFFFFF"/><path d="m336 319.998h32v32h-32z" fill="#fc685b" data-original="#FC685B" class="" data-old_color="#fc685b" style="fill:#000000"/><path d="m336 415.998h32v32h-32z" fill="#ea4a3b" data-original="#EA4A3B" class="" data-old_color="#ea4a3b" style="fill:#FFFFFF"/><path d="m336 383.998h32v32h-32z" fill="#fc685b" data-original="#FC685B" class="" data-old_color="#fc685b" style="fill:#000000"/><path d="m400 287.998h32v32h-32z" fill="#ea4a3b" data-original="#EA4A3B" class="" data-old_color="#ea4a3b" style="fill:#FFFFFF"/><path d="m432 274.578v13.422h-32v-20l24.85 4.659a48.333 48.333 0 0 1 7.15 1.919z" fill="#fc685b" data-original="#FC685B" class="" data-old_color="#fc685b" style="fill:#000000"/><path d="m400 351.998h32v32h-32z" fill="#ea4a3b" data-original="#EA4A3B" class="" data-old_color="#ea4a3b" style="fill:#FFFFFF"/><path d="m400 319.998h32v32h-32z" fill="#fc685b" data-original="#FC685B" class="" data-old_color="#fc685b" style="fill:#000000"/><path d="m400 415.998h32v32h-32z" fill="#ea4a3b" data-original="#EA4A3B" class="" data-old_color="#ea4a3b" style="fill:#FFFFFF"/><path d="m400 383.998h32v32h-32z" fill="#fc685b" data-original="#FC685B" class="" data-old_color="#fc685b" style="fill:#000000"/><path d="m144 287.998h32v32h-32z" fill="#ea4a3b" data-original="#EA4A3B" class="" data-old_color="#ea4a3b" style="fill:#FFFFFF"/><path d="m176 268v20h-32v-13.42a47.931 47.931 0 0 1 7.13-1.911c7.89-1.481 16.38-3.069 24.87-4.669z" fill="#fc685b" data-original="#FC685B" class="" data-old_color="#fc685b" style="fill:#000000"/><path d="m144 351.998h32v32h-32z" fill="#ea4a3b" data-original="#EA4A3B" class="" data-old_color="#ea4a3b" style="fill:#FFFFFF"/><path d="m144 319.998h32v32h-32z" fill="#fc685b" data-original="#FC685B" class="" data-old_color="#fc685b" style="fill:#000000"/><path d="m144 415.998h32v32h-32z" fill="#ea4a3b" data-original="#EA4A3B" class="" data-old_color="#ea4a3b" style="fill:#FFFFFF"/><path d="m144 383.998h32v32h-32z" fill="#fc685b" data-original="#FC685B" class="" data-old_color="#fc685b" style="fill:#000000"/><path d="m368 352v-90l-32-6v96h-96v-96l-32 6v90l-24 96v40h208v-40z" fill="#3d4d63" data-original="#3D4D63" class="" data-old_color="#3d4d63" style="fill:#FFFFFF"/><path d="m368 322.142a424.923 424.923 0 0 1 -184 157.628v8.23h208v-40l-24-96z" fill="#374559" data-original="#374559" class="" data-old_color="#374559" style="fill:#FFFFFF"/><path d="m272 287.998-32-32v56z" fill="#fc685b" data-original="#FC685B" class="" data-old_color="#fc685b" style="fill:#000000"/><path d="m304 287.998 32-32v56z" fill="#fc685b" data-original="#FC685B" class="" data-old_color="#fc685b" style="fill:#000000"/><path d="m360 104h8a24 24 0 0 1 24 24 24 24 0 0 1 -24 24h-8a0 0 0 0 1 0 0v-48a0 0 0 0 1 0 0z" fill="#fec093" data-original="#FEC093" class="" data-old_color="#fec093" style="fill:#FFFFFF"/><path d="m216 104h-8a24.071 24.071 0 0 0 -24 24 24.071 24.071 0 0 0 24 24h8.48" fill="#fec093" data-original="#FEC093" class="" data-old_color="#fec093" style="fill:#FFFFFF"/><path d="m360 96v56a72 72 0 0 1 -144 0v-56a72 72 0 0 1 144 0z" fill="#fec9a3" data-original="#FEC9A3" class="" data-old_color="#fec9a3" style="fill:#FFFFFF"/><path d="m360 96v56a71.993 71.993 0 0 1 -39.66 64.339 71.646 71.646 0 0 0 7.66-32.339v-88a72.059 72.059 0 0 0 -56-70.22 72.715 72.715 0 0 1 16-1.78 72 72 0 0 1 72 72z" fill="#fec093" data-original="#FEC093" class="" data-old_color="#fec093" style="fill:#FFFFFF"/><path d="m352 64h-112a20 20 0 0 1 -20-20 20 20 0 0 1 20-20h63.208a49.758 49.758 0 0 1 48.792 40z" fill="#7a432a" data-original="#7A432A" class="" style="fill:#FFFFFF" data-old_color="#7a432a"/><path d="m176 351.998h16v96h-16z" fill="#d93e30" data-original="#D93E30" class="" data-old_color="#d93e30" style="fill:#000000"/><path d="m384 351.998h16v96h-16z" fill="#d93e30" data-original="#D93E30" class="" data-old_color="#d93e30" style="fill:#000000"/><path d="m368 392-256 8v64a24 24 0 0 0 24 24h48l184-53.455 56-10.545 40 16v-64l-48-8z" fill="#feb784" data-original="#FEB784" class="" data-old_color="#feb784" style="fill:#FFFFFF"/><path d="m96 232h40v256h-40z" fill="#95573a" data-original="#95573A" class="" style="fill:#FFFFFF" data-old_color="#95573a"/><path d="m184 232h-136v-48h80l24 16h32z" fill="#e0e0de" data-original="#E0E0DE" class="" data-old_color="#e0e0de" style="fill:#FFFFFE"/><path d="m138.286 190.857-64.286 41.143h110v-32h-32z" fill="#d6d6d4" data-original="#D6D6D4" class="" data-old_color="#d6d6d4" style="fill:#FFFFFF"/><path d="m96 232h40v24h-40z" fill="#82462a" data-original="#82462A" class="" style="fill:#FFFFFF" data-old_color="#82462a"/><path d="m208 392 256 16v56a24 24 0 0 1 -24 24h-48l-184-40-56-8h-80v-72h88z" fill="#fec9a3" data-original="#FEC9A3" class="" data-old_color="#fec9a3" style="fill:#FFFFFF"/><path d="m312.935 256h-49.871a32 32 0 0 1 -30.358-21.881l-11.78-35.341a95.99 95.99 0 0 1 -4.926-30.359v-64.419l13.821 43.642a20.093 20.093 0 0 0 29.117 7.732 20.1 20.1 0 0 1 11.145-3.374h35.833a20.1 20.1 0 0 1 11.146 3.374l1.4.937a20.093 20.093 0 0 0 28.374-6.381l13.164-45.93v64.421a95.973 95.973 0 0 1 -4.927 30.358l-11.78 35.34a32 32 0 0 1 -30.358 21.881z" fill="#7a432a" data-original="#7A432A" class="" style="fill:#FFFFFF" data-old_color="#7a432a"/><path d="m426.351 264.776-82.351-15.416v-.151a40 40 0 0 0 6.883-12.561l11.78-35.338a103.832 103.832 0 0 0 5.337-32.889v-8.421a32 32 0 0 0 0-64 80.212 80.212 0 0 0 -8.844-36.551 57.924 57.924 0 0 0 -55.948-43.449h-63.208a27.988 27.988 0 0 0 -23.2 43.654 79.524 79.524 0 0 0 -8.8 36.346 32 32 0 1 0 0 64v8.425a103.8 103.8 0 0 0 5.337 32.887l11.78 35.34a39.977 39.977 0 0 0 6.883 12.558v.146c-17.941 3.354-67.6 12.639-82.382 15.426a57.774 57.774 0 0 0 -5.618 1.38v-26.162h40a8 8 0 0 0 8-8v-32a8 8 0 0 0 -8-8h-29.578l-21.985-14.656a8 8 0 0 0 -4.437-1.344h-80a8 8 0 0 0 -8 8v48a8 8 0 0 0 8 8h40v120h-16a8 8 0 0 0 -8 8v72a8 8 0 0 0 8 8h16v40a8 8 0 0 0 8 8h88a7.968 7.968 0 0 0 2.229-.317l87.132-25.283 116.939 25.42a8.023 8.023 0 0 0 1.7.18h48a32.037 32.037 0 0 0 32-32v-144.16a56.018 56.018 0 0 0 -45.649-55.064zm-130.351 79.224v-14.46l11.551-28.877 20.449 15.337v28zm-48-28 20.449-15.337 11.551 28.877v14.46h-32zm0-40.687 11.821 11.822-11.821 8.865zm80 20.687-11.821-8.865 11.821-11.822zm-29.657-13.657a7.99 7.99 0 0 0 -1.764 2.689h-.007l-8.572 21.427-8.572-21.43h-.007a7.99 7.99 0 0 0 -1.764-2.689l-18.545-18.54c1.3.129 2.621.2 3.952.2h49.872c1.331 0 2.648-.073 3.952-.2zm-66.343 29.657v32h-16v-75.375l16-2.991zm-17.754 48h147.508l5.814 23.257-1.591.8-104.122 3.293-51.732-3.233-1.695-.847zm203 16.318 38.754 6.459v16.71l-75.632-4.727zm38.754-56.478v46.716l-38.685-6.448a8.025 8.025 0 0 0 -4.893.737l-12.422 6.211v-15.056h-16v23.044l-1.772.881-6.228-24.91v-79.387l47.407 8.875a40.01 40.01 0 0 1 32.593 39.337zm-96-51.208v75.368h-16v-78.363zm24-140.632a16.018 16.018 0 0 1 -16 16v-32a16.018 16.018 0 0 1 16 16zm-36.673-56a64.233 64.233 0 0 1 4.673 24v6.877l-12.523 43.712a12.093 12.093 0 0 1 -16.574 3.065l-1.4-.934a27.992 27.992 0 0 0 -15.587-4.72h-22.816l12.489-37.47-15.178-5.06-14.271 42.812a27.98 27.98 0 0 0 -11.639 4.437 12.1 12.1 0 0 1 -17.267-4.165l-13.234-41.79v-6.764a63.522 63.522 0 0 1 5.58-26.019 27.828 27.828 0 0 0 10.42 2.019zm-70.8-16-14.4-24h21.34l14.4 24zm64.473 0h-24.47l-14.4-24h1.078a41.9 41.9 0 0 1 37.792 24zm-101-24h3.47l14.4 24h-17.87a12 12 0 0 1 0-24zm-48 96a16.019 16.019 0 0 1 16-16v32a16.019 16.019 0 0 1 -16-16zm32 40.425v-14.831a28.094 28.094 0 0 0 39.376 8.437 12.05 12.05 0 0 1 6.707-2.031h35.833a12.049 12.049 0 0 1 6.709 2.032l1.4.936a28.1 28.1 0 0 0 37.975-6.398v11.851a87.856 87.856 0 0 1 -4.516 27.828l-11.78 35.34a23.97 23.97 0 0 1 -22.768 16.411h-49.872a23.97 23.97 0 0 1 -22.764-16.411l-11.784-35.339a87.865 87.865 0 0 1 -4.516-27.828zm-71.4 112.075c8.481-1.6 28.5-5.348 47.4-8.883v79.4l-6.232 24.928-1.768-.886v-23.059h-16v15.059l-12.422-6.211a7.994 7.994 0 0 0 -3.578-.848h-16v-76.843a40.647 40.647 0 0 1 8.6-2.657zm-96.6-88.5h69.578l21.984 14.656a8 8 0 0 0 4.438 1.344h24v16h-120zm48 48h24v120h-24zm0 240v-32h24v32zm78.863 0h-38.863v-32h7.432l55.151 7.879 33.958 7.383zm273.137-16a16.019 16.019 0 0 1 -16 16h-47.141l-183.159-39.817c-.189-.041-.378-.076-.569-.1l-56-8a8.072 8.072 0 0 0 -1.131-.083h-72v-56h78.111l46.311 23.155a7.987 7.987 0 0 0 3.079.829l53.859 3.367v.006h.109l194.531 12.162z" data-original="#000000" class="active-path" style="fill:#000000" data-old_color="#000000"/><path d="m252 128a12 12 0 1 0 -12-12 12.013 12.013 0 0 0 12 12z" data-original="#000000" class="active-path" style="fill:#000000" data-old_color="#000000"/><path d="m324 128a12 12 0 1 0 -12-12 12.013 12.013 0 0 0 12 12z" data-original="#000000" class="active-path" style="fill:#000000" data-old_color="#000000"/><path d="m278.891 192c13.9 0 27.091-3.229 37.14-9.09l-8.062-13.82c-7.529 4.391-18.127 6.91-29.078 6.91h-14.891v16z" data-original="#000000" class="active-path" style="fill:#000000" data-old_color="#000000"/></g></g> </svg>
