<?xml version="1.0"?>
<svg xmlns="http://www.w3.org/2000/svg" id="Layer_5" enable-background="new 0 0 64 64" height="512px" viewBox="0 0 64 64" width="512px" class=""><g><g><g><path d="m31 22h6v16h-6z" fill="#f0bc5e" data-original="#F0BC5E" class="" style="fill:#FFFFFF" data-old_color="#f0bc5e"/></g><g><g><path d="m15 45c-7.72 0-14-6.28-14-14s6.28-14 14-14 14 6.28 14 14-6.28 14-14 14zm0-23c-4.963 0-9 4.037-9 9s4.037 9 9 9 9-4.037 9-9-4.037-9-9-9z" fill="#f0bc5e" data-original="#F0BC5E" class="" style="fill:#FFFFFF" data-old_color="#f0bc5e"/></g></g><g><path d="m47 47h8v2h-8z" data-original="#000000" class="active-path" style="fill:#2DA100" data-old_color="#000000"/><path d="m43 47h2v2h-2z" data-original="#000000" class="active-path" style="fill:#2DA100" data-old_color="#000000"/><path d="m52 13h2v2h-2z" data-original="#000000" class="active-path" style="fill:#2DA100" data-old_color="#000000"/><path d="m52 17h2v2h-2z" data-original="#000000" class="active-path" style="fill:#2DA100" data-old_color="#000000"/><path d="m52 21h2v2h-2z" data-original="#000000" class="active-path" style="fill:#2DA100" data-old_color="#000000"/><path d="m31 21h6v2h-6z" data-original="#000000" class="active-path" style="fill:#2DA100" data-old_color="#000000"/><path d="m31 25h6v2h-6z" data-original="#000000" class="active-path" style="fill:#2DA100" data-old_color="#000000"/><path d="m31 29h6v2h-6z" data-original="#000000" class="active-path" style="fill:#2DA100" data-old_color="#000000"/><path d="m31 33h6v2h-6z" data-original="#000000" class="active-path" style="fill:#2DA100" data-old_color="#000000"/><path d="m31 37h6v2h-6z" data-original="#000000" class="active-path" style="fill:#2DA100" data-old_color="#000000"/><path d="m59 25v-18c0-3.309-2.691-6-6-6s-6 2.691-6 6v6h-37c-2.757 0-5 2.243-5 5v3.221c.611-.625 1.281-1.191 2-1.693v-1.528c0-1.654 1.346-3 3-3h37v2h-32c2.624 0 5.073.739 7.174 2h24.826v6h-8v16h14v2h-30.826c-1.276.766-2.677 1.34-4.174 1.668v13.332c0 1.654-1.346 3-3 3s-3-1.346-3-3v-13.332c-.688-.151-1.354-.359-2-.607v6.939c-1.654 0-3-1.346-3-3v-5.527c-.719-.503-1.389-1.068-2-1.693v7.22c0 2.757 2.243 5 5 5v5c0 2.757 2.243 5 5 5h35v-1c0-2.757-2.243-5-5-5h-2.279l-1.333-4h12.612c2.757 0 5-2.243 5-5v-7h4v-16zm-10 2v-16h8v16zm7.382 2-2.829 5.658c-.211.422-.895.422-1.105 0l-2.83-5.658zm-3.382-26c2.206 0 4 1.794 4 4v2h-8v-2c0-2.206 1.794-4 4-4zm-33 54v-4h2.612l-1.333 4zm27.829 4h-28.855c.442-.584.773-1.257.924-2h25.102c1.304 0 2.416.836 2.829 2zm-7.217-4h-17.224l1.333-4h14.558zm16.388-9c0 1.654-1.346 3-3 3h-34v-6h33c1.103 0 2-.897 2-2v-2h2zm4-9h-20v-12h6v1.236l3.658 7.316c.446.893 1.344 1.448 2.342 1.448s1.896-.555 2.342-1.447l3.658-7.317v-1.236h2z" data-original="#000000" class="active-path" style="fill:#2DA100" data-old_color="#000000"/><path d="m15 41c5.514 0 10-4.486 10-10s-4.486-10-10-10-10 4.486-10 10 4.486 10 10 10zm0-18c4.411 0 8 3.589 8 8s-3.589 8-8 8-8-3.589-8-8 3.589-8 8-8z" data-original="#000000" class="active-path" style="fill:#2DA100" data-old_color="#000000"/><path d="m15 27v-2c-3.309 0-6 2.691-6 6h2c0-2.206 1.794-4 4-4z" data-original="#000000" class="active-path" style="fill:#2DA100" data-old_color="#000000"/></g></g></g> </svg>
