<?xml version="1.0"?>
<svg xmlns="http://www.w3.org/2000/svg" xmlns:xlink="http://www.w3.org/1999/xlink" version="1.1" id="Capa_1" x="0px" y="0px" viewBox="0 0 512 512" style="enable-background:new 0 0 512 512;" xml:space="preserve" width="512px" height="512px" class=""><g><g>
	<g>
		<path d="M502.881,168.357c-5.881-5.882-13.701-9.121-22.018-9.121c-17.115,0-31.04,13.968-31.041,31.135l-0.004,43.602    c-3.129-1.109-6.496-1.714-10.001-1.714c-16.542,0-29.999,13.458-29.999,29.999v66.401c0,4.249-1.604,8.252-4.525,11.317    l-33.767,28.103c-25.787,21.463-40.577,53.016-40.577,86.565v47.349c0,5.522,4.478,10,10,10h93.829    c3.084,0,5.995-1.423,7.89-3.855l38.661-49.642c19.769-25.383,30.658-57.082,30.66-89.257L512,190.375    C512.001,182.059,508.761,174.239,502.881,168.357z M491.99,369.238c-0.002,27.745-9.392,55.081-26.439,76.97l-35.658,45.786    h-78.943v-37.349c0-27.592,12.164-53.542,33.372-71.192l34.158-28.43c0.233-0.195,0.459-0.4,0.674-0.616    c6.878-6.879,10.665-16.022,10.665-25.747v-66.401c0-5.514,4.486-10,10-10c5.443,0,9.885,4.37,9.999,9.786l-0.008,86.749    c0,0.149,0.003,0.299,0.01,0.446v11.221c0,5.852-1.687,11.538-4.878,16.445l-17.147,26.361c-2.584,2.313-3.892,5.908-3.117,9.543    c1.151,5.401,6.457,8.851,11.863,7.697l0.481-0.103c2.59-0.552,4.855-2.107,6.3-4.328l18.385-28.267    c5.308-8.16,8.112-17.617,8.112-27.349v-98.201c0-0.123-0.001-0.246-0.002-0.369l0.006-71.516    c0.001-6.142,4.954-11.138,11.042-11.138c2.976,0,5.772,1.158,7.876,3.263c2.104,2.104,3.262,4.901,3.262,7.876L491.99,369.238z" data-original="#000000" class="active-path" data-old_color="#000000" fill="#31A003"/>
	</g>
</g><g>
	<g>
		<path d="M140.475,368.08l-33.768-28.103c-2.921-3.066-4.525-7.069-4.525-11.318v-66.401c0-16.542-13.458-29.999-29.999-29.999    c-3.505,0-6.871,0.604-10,1.714l-0.004-43.602c-0.001-17.168-13.927-31.135-31.041-31.135c-8.317,0-16.138,3.239-22.018,9.121    c-5.882,5.882-9.121,13.701-9.12,22.019l0.012,178.863c0.001,32.173,10.89,63.872,30.659,89.258l38.662,49.642    c1.895,2.433,4.806,3.855,7.89,3.855h93.828c5.522,0,10-4.478,10-10v-47.349C181.051,421.094,166.261,389.543,140.475,368.08z     M82.109,491.994L46.45,446.208c-17.049-21.89-26.437-49.226-26.438-76.97l-0.012-178.864c0-2.975,1.158-5.772,3.262-7.876    s4.901-3.263,7.877-3.263c6.088,0,11.041,4.996,11.042,11.138l0.006,71.549c-0.001,0.111-0.002,0.224-0.002,0.336v98.201    c0,9.733,2.805,19.189,8.111,27.349l18.385,28.267c1.444,2.222,3.712,3.778,6.304,4.329l0.482,0.103    c5.408,1.153,10.712-2.301,11.86-7.702c0.772-3.635-0.536-7.229-3.121-9.541l-17.146-26.359    c-3.19-4.906-4.877-10.593-4.877-16.445V349.22c0.006-0.142,0.009-0.282,0.009-0.425l-0.007-86.729    c0.104-5.425,4.549-9.806,9.998-9.806c5.514,0,10,4.486,10,10v66.401c0,9.726,3.787,18.868,10.665,25.747    c0.215,0.216,0.44,0.421,0.674,0.616l34.159,28.43c21.208,17.651,33.371,43.6,33.371,71.192v37.347H82.109z" data-original="#000000" class="active-path" data-old_color="#000000" fill="#31A003"/>
	</g>
</g><g>
	<g>
		<path d="M310.391,41.936c-1.859-1.86-4.43-2.93-7.069-2.93c-2.63,0-5.21,1.069-7.07,2.93s-2.93,4.44-2.93,7.07    s1.069,5.21,2.93,7.069c1.86,1.861,4.44,2.931,7.07,2.931c2.63,0,5.21-1.07,7.069-2.931c1.86-1.859,2.931-4.439,2.931-7.069    S312.251,43.796,310.391,41.936z" data-original="#000000" class="active-path" data-old_color="#000000" fill="#31A003"/>
	</g>
</g><g>
	<g>
		<path d="M501.985,28.007h-43.999v-9c0-5.522-4.478-10-10-10s-10,4.478-10,10v9h-43.999c-5.522,0-10,4.478-10,10s4.478,10,10,10    h43.999v12h-79.998v-11c0-2.129-0.68-4.202-1.939-5.919l-20.851-28.395c-6.752-9.196-17.594-14.686-29.002-14.686H205.788    c-11.409,0-22.25,5.489-29.002,14.685l-20.851,28.395c-1.26,1.717-1.939,3.79-1.939,5.919v11H73.998v-12h43.999    c5.522,0,10-4.478,10-10s-4.478-10-10-10H73.998v-9c0-5.522-4.478-10-10-10s-10,4.478-10,10v9H10c-5.522,0-10,4.478-10,10    s4.478,10,10,10h43.999v12h-12c-3.108,0-6.04,1.445-7.933,3.911c-1.893,2.466-2.531,5.671-1.728,8.674l7.782,29.086    c2.89,10.792,12.708,18.328,23.878,18.328c11.171,0,20.988-7.537,23.877-18.328l5.798-21.671h60.322v15.987    c0,12.956,8.257,24.018,19.783,28.206l-45.033,35.679c-2.395,1.896-3.79,4.783-3.79,7.838v46.287c0,5.522,4.478,10,10,10    s10-4.478,10-10V172.55l47.877-37.932c13.376,14.694,32.482,23.359,52.872,23.359h20.577c20.246,0,39.225-8.55,52.587-23.056    l46.082,37.545v41.536c0,5.522,4.478,10,10,10s10-4.478,10-10v-46.287c0-3.007-1.353-5.854-3.684-7.753l-43.65-35.564    c11.834-4.021,20.374-15.232,20.374-28.406V80.005h60.322l5.798,21.671c2.889,10.791,12.707,18.328,23.877,18.328    c11.171,0,20.988-7.537,23.877-18.328l7.782-29.086c0.804-3.003,0.165-6.208-1.728-8.674s-4.824-3.911-7.933-3.911h-12v-12h43.999    c5.522,0,10-4.478,10-10S507.507,28.007,501.985,28.007z M68.556,96.507c-0.551,2.06-2.426,3.498-4.558,3.498    c-2.132,0-4.007-1.438-4.558-3.498l-4.415-16.502H72.97L68.556,96.507z M266.282,137.977h-20.577    c-12.283,0-23.919-4.365-33.036-11.986h86.65C290.201,133.612,278.564,137.977,266.282,137.977z M337.991,95.992    c0,5.514-4.486,10-10,10h-7.75H191.745h-7.75c-5.514,0-10-4.486-10-10V59.006h90.665c5.522,0,10-4.478,10-10s-4.478-10-10-10    h-80.915l9.163-12.479c2.998-4.083,7.814-6.521,12.881-6.521h100.409c5.067,0,9.883,2.438,12.882,6.522l18.911,25.754V95.992z     M452.546,96.507c-0.551,2.06-2.426,3.498-4.558,3.498s-4.007-1.438-4.558-3.498l-4.415-16.502h17.945L452.546,96.507z" data-original="#000000" class="active-path" data-old_color="#000000" fill="#31A003"/>
	</g>
</g></g> </svg>
