<?xml version="1.0"?>
<svg xmlns="http://www.w3.org/2000/svg" id="Layer_5" enable-background="new 0 0 64 64" height="512px" viewBox="0 0 64 64" width="512px" class=""><g><g><g><path d="m58 11h-4v5h3c.552 0 1 .448 1 1v24c0 .552-.448 1-1 1h-50c-.552 0-1-.448-1-1v-24c0-.552.448-1 1-1h13v-5h-14c-2.757 0-5 2.243-5 5v30c0 2.757 2.243 5 5 5h52c2.757 0 5-2.243 5-5v-30c0-2.757-2.243-5-5-5z" fill="#f0bc5e" data-original="#F0BC5E" class="" style="fill:#FFFFFF" data-old_color="#f0bc5e"/></g><g><path d="m28 19c.334 0 .667.037 1 .059v4.941c0 1.654 1.346 3 3 3s3-1.346 3-3v-3.372c.042.021.088.035.13.056l4.634 2.316h7.236v-4.101c2.279-.465 4-2.484 4-4.899s-1.721-4.434-4-4.899v-4.101h-7.236l-4.634 2.316c-2.201 1.102-4.667 1.684-7.13 1.684-2.757 0-5 2.243-5 5s2.243 5 5 5zm5 5c0 .552-.449 1-1 1s-1-.448-1-1v-4.688c.677.13 1.345.299 2 .515zm16-10c0 1.302-.839 2.402-2 2.816v-5.631c1.161.413 2 1.513 2 2.815zm-4 7h-4v-14h4zm-8.975-11.895 2.975-1.487v12.764l-2.975-1.488c-.969-.484-1.983-.876-3.025-1.178v-7.433c1.041-.301 2.056-.693 3.025-1.178zm-8.025 1.895c1.005 0 2.009-.089 3-.257v6.515c-.991-.169-1.995-.258-3-.258-1.654 0-3-1.346-3-3s1.346-3 3-3z" data-original="#000000" class="active-path" data-old_color="#000000" style="fill:#2DA100"/><path d="m47 55h-2.666c-1.299-.959-2.128-2.406-2.298-4h-1.987c.116 1.462.623 2.845 1.48 4h-19.058c.857-1.155 1.364-2.538 1.48-4h-1.987c-.17 1.594-.999 3.041-2.298 4h-2.666c-1.654 0-3 1.346-3 3v2c0 1.654 1.346 3 3 3h30c1.654 0 3-1.346 3-3v-2c0-1.654-1.346-3-3-3zm1 5c0 .552-.449 1-1 1h-30c-.551 0-1-.448-1-1v-2c0-.552.449-1 1-1h30c.551 0 1 .448 1 1z" data-original="#000000" class="active-path" data-old_color="#000000" style="fill:#2DA100"/><path d="m51 45h2v2h-2z" data-original="#000000" class="active-path" data-old_color="#000000" style="fill:#2DA100"/><path d="m55 45h2v2h-2z" data-original="#000000" class="active-path" data-old_color="#000000" style="fill:#2DA100"/><path d="m47 45h2v2h-2z" data-original="#000000" class="active-path" data-old_color="#000000" style="fill:#2DA100"/><path d="m57 15h-2v-9c0-2.757-2.243-5-5-5h-26c-2.757 0-5 2.243-5 5v9h-12c-1.103 0-2 .897-2 2v24c0 1.103.897 2 2 2h50c1.103 0 2-.897 2-2v-24c0-1.103-.897-2-2-2zm-36-9c0-1.654 1.346-3 3-3h26c1.654 0 3 1.346 3 3v20c0 1.654-1.346 3-3 3h-15.414l-3.878 3.878c-.241.242-.708.045-.708-.292v-3.586h-6c-1.654 0-3-1.346-3-3zm36 35h-50v-24h12v9c0 2.757 2.243 5 5 5h4v1.586c0 1.331 1.083 2.414 2.414 2.414.635 0 1.257-.258 1.707-.707l3.293-3.293h14.586c2.757 0 5-2.243 5-5v-9h2z" data-original="#000000" class="active-path" data-old_color="#000000" style="fill:#2DA100"/><path d="m9 19h8v2h-8z" data-original="#000000" class="active-path" data-old_color="#000000" style="fill:#2DA100"/><path d="m9 23h8v2h-8z" data-original="#000000" class="active-path" data-old_color="#000000" style="fill:#2DA100"/><path d="m9 27h8v2h-8z" data-original="#000000" class="active-path" data-old_color="#000000" style="fill:#2DA100"/><path d="m9 39h8v-8h-8zm2-6h4v4h-4z" data-original="#000000" class="active-path" data-old_color="#000000" style="fill:#2DA100"/><path d="m53 33h2v2h-2z" data-original="#000000" class="active-path" data-old_color="#000000" style="fill:#2DA100"/><path d="m35 33h16v2h-16z" data-original="#000000" class="active-path" data-old_color="#000000" style="fill:#2DA100"/><path d="m35 37h20v2h-20z" data-original="#000000" class="active-path" data-old_color="#000000" style="fill:#2DA100"/></g></g></g> </svg>
